<svg width="48" height="48" viewBox="0 0 48 48" fill="none" xmlns="http://www.w3.org/2000/svg">
<path d="M8.76547 0C3.91033 0 0.000976562 3.90935 0.000976562 8.76449V39.2355C0.000976562 44.0906 3.91033 48 8.76547 48H25.2805V29.235H20.3185V22.479H25.2805V16.707C25.2805 12.1722 28.2122 8.0085 34.9659 8.0085C37.7004 8.0085 39.7224 8.27101 39.7224 8.27101L39.5634 14.58C39.5634 14.58 37.5012 14.5605 35.2509 14.5605C32.8154 14.5605 32.4249 15.6827 32.4249 17.5455V22.479H39.7569L39.4374 29.235H32.4249V48H39.2364C44.0915 48 48.0009 44.0906 48.0009 39.2355V8.76454C48.0009 3.9094 44.0915 4.79999e-05 39.2364 4.79999e-05H8.76542L8.76547 0Z" fill="white"/>
</svg>
