<svg width="48" height="48" viewBox="0 0 48 48" fill="none" xmlns="http://www.w3.org/2000/svg">
<path d="M23.994 15.9966C19.587 15.9966 15.9906 19.593 15.9906 24C15.9906 28.407 19.587 32.0034 23.994 32.0034C28.401 32.0034 31.9974 28.407 31.9974 24C31.9974 19.593 28.401 15.9966 23.994 15.9966ZM47.9982 24C47.9982 20.6858 48.0282 17.4015 47.8421 14.0933C47.656 10.2507 46.7794 6.84041 43.9695 4.03051C41.1536 1.2146 37.7493 0.344017 33.9067 0.157891C30.5925 -0.0282345 27.3082 0.00178587 24 0.00178587C20.6858 0.00178587 17.4015 -0.0282345 14.0933 0.157891C10.2507 0.344017 6.84041 1.22061 4.03051 4.03051C1.21461 6.84641 0.344017 10.2507 0.157891 14.0933C-0.0282345 17.4075 0.00178587 20.6918 0.00178587 24C0.00178587 27.3082 -0.0282345 30.5985 0.157891 33.9067C0.344017 37.7493 1.22061 41.1596 4.03051 43.9695C6.84641 46.7854 10.2507 47.656 14.0933 47.8421C17.4075 48.0282 20.6918 47.9982 24 47.9982C27.3142 47.9982 30.5985 48.0282 33.9067 47.8421C37.7493 47.656 41.1596 46.7794 43.9695 43.9695C46.7854 41.1536 47.656 37.7493 47.8421 33.9067C48.0342 30.5985 47.9982 27.3142 47.9982 24V24ZM23.994 36.3143C17.1794 36.3143 11.6797 30.8146 11.6797 24C11.6797 17.1854 17.1794 11.6857 23.994 11.6857C30.8086 11.6857 36.3083 17.1854 36.3083 24C36.3083 30.8146 30.8086 36.3143 23.994 36.3143ZM36.8127 14.0573C35.2216 14.0573 33.9367 12.7724 33.9367 11.1813C33.9367 9.59026 35.2216 8.3054 36.8127 8.3054C38.4037 8.3054 39.6886 9.59026 39.6886 11.1813C39.6891 11.5591 39.615 11.9333 39.4706 12.2825C39.3263 12.6316 39.1145 12.9488 38.8473 13.216C38.5802 13.4831 38.2629 13.695 37.9138 13.8393C37.5647 13.9837 37.1905 14.0578 36.8127 14.0573V14.0573Z" fill="white"/>
</svg>
