<svg width="195" height="121" viewBox="0 0 195 121" fill="none" xmlns="http://www.w3.org/2000/svg">
<g clip-path="url(#clip0_244_940)">
<path d="M9.07354 102.671L6.40869 93.1192C6.36153 93.0308 6.30257 92.9837 6.23771 92.9837H5.05858C5.03499 92.9799 5.01082 92.9815 4.98801 92.9887C4.9652 92.9958 4.94436 93.0081 4.92718 93.0247C4.90999 93.0413 4.89693 93.0617 4.88904 93.0842C4.88114 93.1068 4.87863 93.1308 4.8817 93.1545V102.577C4.88388 102.632 4.8745 102.686 4.85418 102.737C4.83387 102.788 4.80306 102.834 4.76379 102.872C4.726 102.912 4.68025 102.943 4.62949 102.965C4.57872 102.986 4.52406 102.996 4.46901 102.995H0.41867C0.363568 102.997 0.308792 102.986 0.257972 102.965C0.207152 102.944 0.161449 102.912 0.123885 102.872C0.0838425 102.834 0.0521417 102.788 0.0308202 102.737C0.00949878 102.687 -0.000976351 102.632 7.15335e-05 102.577V79.1796C-0.000976351 79.1246 0.00949878 79.07 0.0308202 79.0193C0.0521417 78.9686 0.0838425 78.9229 0.123885 78.8852C0.161449 78.8449 0.207152 78.813 0.257972 78.7917C0.308792 78.7703 0.363568 78.76 0.41867 78.7615H7.41096C8.6013 78.7379 9.77303 79.059 10.7847 79.686C11.7964 80.313 12.6047 81.2191 13.1121 82.2949C13.6701 83.4741 13.9485 84.7658 13.9257 86.0699C13.9517 87.3136 13.6851 88.5461 13.1475 89.6682C12.664 90.6616 11.923 91.5075 11.0014 92.118C10.9617 92.1394 10.9274 92.1696 10.9012 92.2064C10.8895 92.2238 10.8833 92.2443 10.8833 92.2653C10.8833 92.2862 10.8895 92.3067 10.9012 92.3241L14.0849 102.53L14.1203 102.671C14.1203 102.901 13.9964 103.019 13.7429 103.019H9.58647C9.473 103.035 9.3575 103.009 9.26261 102.944C9.16772 102.88 9.10029 102.783 9.07354 102.671ZM4.8817 83.1665V89.0557C4.8817 89.1735 4.94066 89.2265 5.05858 89.2265H6.61504C6.95461 89.2378 7.29202 89.1684 7.59951 89.0241C7.907 88.8797 8.17579 88.6645 8.38375 88.3961C8.86143 87.7486 9.09901 86.9555 9.05585 86.1523C9.10666 85.3246 8.86919 84.5048 8.38375 83.832C8.17579 83.5636 7.907 83.3484 7.59951 83.2041C7.29202 83.0597 6.95461 82.9903 6.61504 83.0017H5.05858C5.03553 82.998 5.01196 82.9996 4.98964 83.0064C4.96732 83.0132 4.94685 83.025 4.92979 83.0409C4.91273 83.0568 4.89953 83.0764 4.89119 83.0982C4.88286 83.12 4.87962 83.1433 4.8817 83.1665Z" fill="#F5EFE9"/>
<path d="M20.6409 101.423C19.9973 100.768 19.4959 99.9876 19.1682 99.1303C18.8405 98.273 18.6936 97.3574 18.7366 96.4407V85.3691C18.6947 84.4526 18.8421 83.5373 19.1697 82.6801C19.4974 81.823 19.9981 81.0424 20.6409 80.3869C22.0673 79.1815 23.8752 78.52 25.7436 78.52C27.612 78.52 29.4199 79.1815 30.8463 80.3869C31.494 81.0396 31.9992 81.8193 32.33 82.6769C32.6608 83.5344 32.81 84.4511 32.7683 85.3691V96.4407C32.8111 97.3589 32.6624 98.2759 32.3315 99.1336C32.0006 99.9913 31.4949 100.771 30.8463 101.423C29.4199 102.628 27.612 103.29 25.7436 103.29C23.8752 103.29 22.0673 102.628 20.6409 101.423ZM27.2912 98.4313C27.6996 97.9354 27.9097 97.306 27.8808 96.6645V85.1807C27.9102 84.5392 27.7001 83.9095 27.2912 83.414C27.0999 83.1909 26.8604 83.0141 26.5908 82.8968C26.3212 82.7795 26.0285 82.7248 25.7347 82.7367C25.4433 82.7235 25.1528 82.7778 24.8859 82.8952C24.619 83.0127 24.3829 83.1903 24.196 83.414C23.7915 83.912 23.5819 84.5399 23.6064 85.1807V96.6645C23.5825 97.3053 23.7919 97.933 24.196 98.4313C24.3837 98.6539 24.62 98.8307 24.8867 98.9481C25.1535 99.0655 25.4435 99.1204 25.7347 99.1085C26.0284 99.1192 26.3207 99.0638 26.59 98.9466C26.8594 98.8294 27.099 98.6533 27.2912 98.4313Z" fill="#F5EFE9"/>
<path d="M41.7181 102.86C41.68 102.821 41.6499 102.775 41.6297 102.724C41.6094 102.674 41.5994 102.62 41.6002 102.565V93.5727L41.5648 93.3607L36.7126 79.2797C36.6888 79.2261 36.6787 79.1674 36.6832 79.109C36.6832 78.9028 36.807 78.7968 37.0605 78.7968H41.3231C41.4318 78.788 41.5402 78.8182 41.6287 78.8818C41.7173 78.9455 41.7803 79.0385 41.8065 79.1443L43.9526 87.3891C43.9526 87.4598 44.0115 87.4892 44.0587 87.4892C44.1059 87.4892 44.1412 87.4598 44.1648 87.3891L46.3109 79.1443C46.336 79.0379 46.3987 78.9442 46.4876 78.8803C46.5764 78.8165 46.6853 78.7868 46.7943 78.7968H51.0569C51.1141 78.7924 51.1715 78.8013 51.2247 78.8227C51.2779 78.8442 51.3254 78.8777 51.3634 78.9205C51.4 78.9722 51.4225 79.0325 51.4287 79.0955C51.4349 79.1584 51.4246 79.2219 51.3988 79.2797L46.5172 93.3607L46.4818 93.5727V102.565C46.4826 102.62 46.4726 102.674 46.4523 102.724C46.4321 102.775 46.4021 102.821 46.3639 102.86C46.3257 102.899 46.2798 102.931 46.2292 102.952C46.1785 102.973 46.1241 102.984 46.0691 102.984H42.0129C41.9579 102.984 41.9035 102.973 41.8528 102.952C41.8021 102.931 41.7563 102.899 41.7181 102.86Z" fill="#F5EFE9"/>
<path d="M64.216 102.636L63.6618 99.3143C63.6618 99.1965 63.591 99.1376 63.4554 99.1376H59.1221C58.9865 99.1376 58.9158 99.1847 58.9158 99.2789L58.3262 102.636C58.3251 102.692 58.3121 102.747 58.2879 102.798C58.2638 102.849 58.229 102.894 58.186 102.93C58.1431 102.966 58.0928 102.993 58.0387 103.008C57.9846 103.023 57.9278 103.027 57.8722 103.019H53.8219C53.5212 103.019 53.4033 102.865 53.474 102.565L58.5679 79.1793C58.5716 79.1246 58.5862 79.0712 58.6109 79.0222C58.6355 78.9731 58.6697 78.9295 58.7114 78.8939C58.7532 78.8582 58.8016 78.8313 58.8539 78.8145C58.9062 78.7978 58.9613 78.7917 59.016 78.7965H63.6913C63.746 78.7917 63.8011 78.7978 63.8534 78.8145C63.9057 78.8313 63.9541 78.8582 63.9958 78.8939C64.0376 78.9295 64.0717 78.9731 64.0964 79.0222C64.121 79.0712 64.1356 79.1246 64.1393 79.1793L69.1978 102.565L69.2332 102.706C69.2332 102.913 69.1094 103.019 68.85 103.019H64.6523C64.5978 103.025 64.5426 103.02 64.4902 103.004C64.4379 102.988 64.3895 102.961 64.3483 102.925C64.3071 102.889 64.274 102.844 64.2512 102.794C64.2284 102.745 64.2164 102.691 64.216 102.636ZM59.8532 95.3686H62.8305C62.9248 95.3686 62.972 95.3097 62.972 95.1978L61.5158 86.2698C61.4922 86.1992 61.4568 86.1638 61.4096 86.1638C61.3625 86.1638 61.3271 86.1992 61.3094 86.2698L59.6763 95.1978C59.6586 95.3097 59.7117 95.3686 59.8532 95.3686Z" fill="#F5EFE9"/>
<path d="M74.3802 102.895C74.342 102.856 74.312 102.81 74.2917 102.759C74.2715 102.709 74.2615 102.655 74.2622 102.6V79.2145C74.2615 79.1599 74.2716 79.1056 74.292 79.055C74.3123 79.0043 74.3426 78.9581 74.381 78.9192C74.4194 78.8803 74.4652 78.8494 74.5157 78.8283C74.5661 78.8072 74.6203 78.7964 74.675 78.7964H78.7312C78.7859 78.7964 78.84 78.8072 78.8905 78.8283C78.941 78.8494 78.9867 78.8803 79.0251 78.9192C79.0635 78.9581 79.0938 79.0043 79.1142 79.055C79.1346 79.1056 79.1447 79.1599 79.1439 79.2145V98.6487C79.141 98.6726 79.1437 98.6968 79.1515 98.7195C79.1594 98.7422 79.1724 98.7629 79.1894 98.7799C79.2064 98.7969 79.2271 98.8098 79.2499 98.8177C79.2726 98.8256 79.2969 98.8282 79.3208 98.8253H86.5901C86.6446 98.8246 86.6988 98.8346 86.7493 98.8548C86.7999 98.875 86.846 98.905 86.8849 98.9431C86.9244 98.9813 86.9557 99.0271 86.977 99.0777C86.9983 99.1283 87.0091 99.1827 87.0088 99.2376V102.6C87.0072 102.711 86.9626 102.816 86.8845 102.894C86.8063 102.972 86.7007 103.017 86.5901 103.018H74.675C74.62 103.019 74.5656 103.008 74.5149 102.987C74.4642 102.965 74.4184 102.934 74.3802 102.895Z" fill="#F5EFE9"/>
<path d="M93.1874 101.423C92.548 100.769 92.0505 99.9913 91.7258 99.1371C91.4012 98.2829 91.2565 97.371 91.3008 96.4584V85.269C91.2581 84.3636 91.4037 83.4592 91.7284 82.6129C92.0531 81.7665 92.5499 80.9966 93.1874 80.3516C94.5918 79.1754 96.366 78.5308 98.1987 78.5308C100.031 78.5308 101.806 79.1754 103.21 80.3516C103.849 80.9957 104.346 81.7655 104.671 82.6121C104.996 83.4587 105.141 84.3635 105.097 85.269V85.6459C105.097 85.7005 105.087 85.7548 105.067 85.8055C105.047 85.8562 105.016 85.9023 104.978 85.9412C104.939 85.9801 104.894 86.011 104.843 86.0321C104.793 86.0532 104.739 86.064 104.684 86.064L100.628 86.2348C100.351 86.2348 100.215 86.1111 100.215 85.8579V84.9333C100.242 84.3412 100.044 83.7608 99.6608 83.3079C99.4738 83.1002 99.2431 82.9366 98.9851 82.8286C98.7272 82.7207 98.4486 82.6712 98.1692 82.6837C97.8962 82.6736 97.6244 82.7244 97.3736 82.8324C97.1227 82.9404 96.8991 83.1028 96.7189 83.3079C96.336 83.7608 96.1381 84.3412 96.1647 84.9333V96.8706C96.1361 97.4577 96.3345 98.0333 96.7189 98.4783C96.9041 98.6748 97.1295 98.8291 97.3798 98.9307C97.6301 99.0323 97.8993 99.0789 98.1692 99.0672C98.4456 99.0814 98.7217 99.0361 98.979 98.9345C99.2364 98.8329 99.4689 98.6774 99.6608 98.4783C100.045 98.0333 100.244 97.4577 100.215 96.8706V95.9342C100.214 95.8792 100.224 95.8246 100.246 95.7739C100.267 95.7232 100.299 95.6775 100.339 95.6398C100.376 95.6007 100.421 95.57 100.471 95.5496C100.52 95.5293 100.574 95.5199 100.628 95.522L104.684 95.6928C104.961 95.6928 105.097 95.8164 105.097 96.0756V96.4525C105.142 97.3667 104.996 98.2805 104.668 99.1353C104.341 99.9901 103.838 100.767 103.192 101.417C101.795 102.609 100.018 103.263 98.181 103.263C96.3438 103.263 94.5669 102.609 93.1697 101.417L93.1874 101.423Z" fill="#F5EFE9"/>
<path d="M112.048 101.423C111.404 100.768 110.903 99.9874 110.575 99.1301C110.247 98.2728 110.1 97.3572 110.143 96.4406V85.369C110.101 84.4524 110.249 83.5371 110.576 82.6799C110.904 81.8228 111.405 81.0422 112.048 80.3868C113.473 79.1818 115.28 78.5205 117.147 78.5205C119.015 78.5205 120.822 79.1818 122.247 80.3868C122.896 81.0386 123.402 81.8182 123.733 82.6759C124.064 83.5336 124.212 84.4508 124.169 85.369V96.4406C124.213 97.3589 124.065 98.2763 123.734 99.1342C123.403 99.9921 122.897 100.772 122.247 101.423C120.822 102.628 119.015 103.289 117.147 103.289C115.28 103.289 113.473 102.628 112.048 101.423ZM118.698 98.4311C119.106 97.9352 119.316 97.3058 119.288 96.6643V85.1805C119.317 84.539 119.107 83.9094 118.698 83.4138C118.506 83.1911 118.267 83.0145 117.997 82.8972C117.728 82.78 117.435 82.725 117.141 82.7365C116.849 82.7238 116.558 82.7782 116.29 82.8956C116.022 83.013 115.785 83.1903 115.597 83.4138C115.195 83.9131 114.985 84.5401 115.007 85.1805V96.6643C114.986 97.3047 115.195 97.9315 115.597 98.4311C115.786 98.6535 116.023 98.8301 116.291 98.9474C116.559 99.0648 116.849 99.1198 117.141 99.1083C117.435 99.1186 117.727 99.063 117.997 98.9459C118.266 98.8287 118.506 98.6528 118.698 98.4311Z" fill="#F5EFE9"/>
<path d="M142.198 82.86C142.161 82.9 142.115 82.9316 142.064 82.9529C142.013 82.9742 141.959 82.9847 141.904 82.9836H134.699C134.676 82.9808 134.652 82.9832 134.63 82.9908C134.608 82.9984 134.588 83.0109 134.572 83.0273C134.555 83.0438 134.543 83.0638 134.535 83.0858C134.528 83.1079 134.525 83.1313 134.528 83.1544V88.6254C134.525 88.6485 134.528 88.672 134.535 88.694C134.543 88.7161 134.555 88.7361 134.572 88.7525C134.588 88.769 134.608 88.7815 134.63 88.7891C134.652 88.7966 134.676 88.7991 134.699 88.7962H138.826C138.881 88.7954 138.935 88.8055 138.986 88.8259C139.037 88.8463 139.083 88.8765 139.122 88.9149C139.161 88.9532 139.192 88.9989 139.213 89.0493C139.234 89.0997 139.245 89.1538 139.245 89.2085V92.5888C139.243 92.6992 139.198 92.8047 139.12 92.8828C139.042 92.9609 138.937 93.0054 138.826 93.0069H134.699C134.676 93.0041 134.652 93.0065 134.63 93.0141C134.608 93.0217 134.588 93.0342 134.572 93.0506C134.555 93.0671 134.543 93.0871 134.535 93.1091C134.528 93.1312 134.525 93.1546 134.528 93.1777V102.6C134.529 102.655 134.519 102.71 134.497 102.761C134.476 102.811 134.444 102.857 134.404 102.895C134.367 102.935 134.321 102.967 134.27 102.988C134.219 103.01 134.165 103.02 134.109 103.018H130.059C130.004 103.02 129.949 103.009 129.899 102.988C129.848 102.966 129.802 102.935 129.764 102.895C129.725 102.857 129.694 102.811 129.674 102.76C129.654 102.709 129.644 102.655 129.646 102.6V79.2146C129.644 79.16 129.653 79.1054 129.673 79.0546C129.694 79.0038 129.725 78.958 129.764 78.9201C129.802 78.8801 129.848 78.8485 129.899 78.8272C129.949 78.8059 130.004 78.7954 130.059 78.7965H141.886C141.941 78.7954 141.996 78.8059 142.046 78.8272C142.097 78.8485 142.143 78.8801 142.181 78.9201C142.221 78.9577 142.253 79.0033 142.274 79.0541C142.296 79.1048 142.306 79.1596 142.304 79.2146V82.5773C142.307 82.6291 142.298 82.6808 142.28 82.7293C142.262 82.7779 142.234 82.8223 142.198 82.86Z" fill="#F5EFE9"/>
<path d="M159.573 82.8599C159.535 82.9002 159.49 82.9321 159.439 82.9534C159.388 82.9747 159.333 82.985 159.278 82.9836H152.056C152.032 82.9797 152.008 82.9814 151.985 82.9885C151.962 82.9956 151.942 83.008 151.924 83.0246C151.907 83.0412 151.894 83.0615 151.886 83.0841C151.878 83.1066 151.876 83.1307 151.879 83.1544V88.6254C151.876 88.649 151.878 88.6731 151.886 88.6956C151.894 88.7182 151.907 88.7386 151.924 88.7551C151.942 88.7717 151.962 88.7841 151.985 88.7912C152.008 88.7983 152.032 88.8 152.056 88.7961H156.183C156.237 88.7945 156.292 88.8041 156.343 88.8242C156.393 88.8443 156.44 88.8746 156.478 88.9133C156.517 88.9519 156.547 88.998 156.567 89.0487C156.588 89.0995 156.597 89.1538 156.596 89.2084V92.5887C156.596 92.6434 156.586 92.6976 156.566 92.7483C156.545 92.799 156.515 92.8452 156.477 92.8841C156.438 92.923 156.393 92.9539 156.342 92.9749C156.292 92.996 156.238 93.0069 156.183 93.0069H152.056C152.032 93.003 152.008 93.0047 151.985 93.0118C151.962 93.0189 151.942 93.0313 151.924 93.0479C151.907 93.0645 151.894 93.0849 151.886 93.1074C151.878 93.1299 151.876 93.154 151.879 93.1777V102.6C151.88 102.655 151.87 102.709 151.849 102.759C151.829 102.81 151.799 102.856 151.761 102.895C151.723 102.934 151.677 102.965 151.626 102.987C151.576 103.008 151.521 103.019 151.466 103.018H147.41C147.355 103.019 147.301 103.008 147.25 102.987C147.199 102.965 147.153 102.934 147.115 102.895C147.077 102.856 147.047 102.81 147.027 102.759C147.007 102.709 146.997 102.655 146.997 102.6V79.2145C146.997 79.1599 147.007 79.1056 147.027 79.055C147.047 79.0043 147.078 78.9581 147.116 78.9192C147.155 78.8803 147.2 78.8494 147.251 78.8283C147.301 78.8072 147.355 78.7964 147.41 78.7964H159.254C159.365 78.7979 159.471 78.8425 159.549 78.9205C159.627 78.9986 159.672 79.1041 159.673 79.2145V82.5772C159.676 82.6286 159.669 82.6801 159.651 82.7286C159.634 82.7771 159.607 82.8218 159.573 82.8599Z" fill="#F5EFE9"/>
<path d="M176.941 82.8599C176.903 82.8993 176.857 82.9306 176.807 82.9519C176.756 82.9731 176.702 82.9839 176.647 82.9836H169.407C169.383 82.9797 169.359 82.9814 169.336 82.9885C169.313 82.9956 169.293 83.008 169.275 83.0246C169.258 83.0412 169.245 83.0615 169.237 83.0841C169.229 83.1066 169.227 83.1307 169.23 83.1544V88.6254C169.227 88.649 169.229 88.6731 169.237 88.6956C169.245 88.7182 169.258 88.7386 169.275 88.7552C169.293 88.7717 169.313 88.7841 169.336 88.7912C169.359 88.7983 169.383 88.8 169.407 88.7961H173.563C173.618 88.7945 173.672 88.8041 173.723 88.8242C173.774 88.8443 173.82 88.8746 173.859 88.9133C173.897 88.9519 173.928 88.998 173.948 89.0487C173.968 89.0995 173.978 89.1538 173.976 89.2084V92.5887C173.977 92.6434 173.967 92.6976 173.946 92.7483C173.926 92.799 173.895 92.8452 173.857 92.8841C173.819 92.923 173.773 92.9539 173.722 92.9749C173.672 92.996 173.618 93.0069 173.563 93.0069H169.407C169.383 93.003 169.359 93.0047 169.336 93.0118C169.313 93.0189 169.293 93.0313 169.275 93.0479C169.258 93.0645 169.245 93.0849 169.237 93.1074C169.229 93.1299 169.227 93.154 169.23 93.1777V98.6781C169.227 98.702 169.23 98.7262 169.238 98.7489C169.245 98.7717 169.258 98.7923 169.275 98.8093C169.292 98.8263 169.313 98.8393 169.336 98.8471C169.359 98.855 169.383 98.8576 169.407 98.8548H176.67C176.725 98.8532 176.779 98.8627 176.83 98.8829C176.881 98.903 176.927 98.9333 176.966 98.9719C177.004 99.0105 177.035 99.0566 177.055 99.1074C177.075 99.1581 177.085 99.2125 177.083 99.267V102.6C177.084 102.655 177.074 102.709 177.053 102.759C177.033 102.81 177.003 102.856 176.965 102.895C176.927 102.934 176.881 102.965 176.83 102.987C176.78 103.008 176.725 103.019 176.67 103.018H164.767C164.712 103.02 164.657 103.01 164.606 102.988C164.555 102.967 164.51 102.935 164.472 102.895C164.432 102.857 164.4 102.811 164.379 102.761C164.358 102.71 164.347 102.655 164.348 102.6V79.2145C164.35 79.1041 164.394 78.9986 164.473 78.9205C164.551 78.8425 164.656 78.7979 164.767 78.7964H176.67C176.725 78.7964 176.779 78.8072 176.83 78.8283C176.88 78.8494 176.926 78.8803 176.964 78.9192C177.003 78.9581 177.033 79.0043 177.053 79.055C177.074 79.1056 177.084 79.1599 177.083 79.2145V82.5772C177.079 82.6314 177.065 82.6843 177.041 82.7329C177.017 82.7814 176.983 82.8246 176.941 82.8599Z" fill="#F5EFE9"/>
<path d="M194.882 82.8599C194.844 82.8993 194.798 82.9306 194.747 82.9519C194.697 82.9731 194.642 82.9839 194.587 82.9836H187.347C187.324 82.9797 187.3 82.9814 187.277 82.9885C187.254 82.9956 187.233 83.008 187.216 83.0246C187.199 83.0412 187.186 83.0615 187.178 83.0841C187.17 83.1066 187.167 83.1307 187.17 83.1544V88.6254C187.167 88.649 187.17 88.6731 187.178 88.6956C187.186 88.7182 187.199 88.7386 187.216 88.7552C187.233 88.7717 187.254 88.7841 187.277 88.7912C187.3 88.7983 187.324 88.8 187.347 88.7961H191.474C191.529 88.7945 191.583 88.8041 191.634 88.8242C191.685 88.8443 191.731 88.8746 191.77 88.9133C191.808 88.9519 191.839 88.998 191.859 89.0487C191.879 89.0995 191.889 89.1538 191.887 89.2084V92.5887C191.888 92.6434 191.878 92.6976 191.857 92.7483C191.837 92.799 191.807 92.8452 191.768 92.8841C191.73 92.923 191.684 92.9539 191.634 92.9749C191.583 92.996 191.529 93.0069 191.474 93.0069H187.347C187.324 93.003 187.3 93.0047 187.277 93.0118C187.254 93.0189 187.233 93.0313 187.216 93.0479C187.199 93.0645 187.186 93.0849 187.178 93.1074C187.17 93.1299 187.167 93.154 187.17 93.1777V98.6781C187.168 98.702 187.17 98.7262 187.178 98.7489C187.186 98.7717 187.199 98.7923 187.216 98.8093C187.233 98.8263 187.254 98.8393 187.276 98.8471C187.299 98.855 187.323 98.8576 187.347 98.8548H194.587C194.642 98.8532 194.696 98.8627 194.747 98.8829C194.798 98.903 194.844 98.9333 194.883 98.9719C194.921 99.0105 194.952 99.0566 194.972 99.1074C194.992 99.1581 195.002 99.2125 195 99.267V102.6C195.001 102.655 194.991 102.709 194.97 102.759C194.95 102.81 194.92 102.856 194.882 102.895C194.844 102.934 194.798 102.965 194.747 102.987C194.697 103.008 194.642 103.019 194.587 103.018H182.707C182.652 103.02 182.598 103.01 182.547 102.988C182.496 102.967 182.45 102.935 182.413 102.895C182.373 102.857 182.341 102.811 182.32 102.761C182.298 102.71 182.288 102.655 182.289 102.6V79.2145C182.29 79.1041 182.335 78.9986 182.413 78.9205C182.491 78.8425 182.597 78.7979 182.707 78.7964H194.587C194.642 78.7964 194.696 78.8072 194.747 78.8283C194.797 78.8494 194.843 78.8803 194.881 78.9192C194.92 78.9581 194.95 79.0043 194.97 79.055C194.991 79.1056 195.001 79.1599 195 79.2145V82.5772C194.999 82.6832 194.957 82.7846 194.882 82.8599Z" fill="#F5EFE9"/>
<path d="M57.5774 119.626C57.4076 119.452 57.2755 119.245 57.1893 119.018C57.1031 118.791 57.0646 118.549 57.0763 118.307V115.103C57.0654 114.862 57.1043 114.62 57.1905 114.394C57.2767 114.169 57.4084 113.963 57.5774 113.79C57.9454 113.47 58.4164 113.294 58.9039 113.294C59.3914 113.294 59.8625 113.47 60.2305 113.79C60.4013 113.963 60.5345 114.17 60.6218 114.397C60.709 114.623 60.7484 114.866 60.7375 115.109V118.313C60.7484 118.556 60.709 118.798 60.6218 119.025C60.5345 119.252 60.4013 119.459 60.2305 119.632C59.8642 119.955 59.3925 120.133 58.9039 120.133C58.4154 120.133 57.9437 119.955 57.5774 119.632V119.626ZM59.4287 118.943C59.5699 118.78 59.6418 118.569 59.6291 118.354V115.044C59.6418 114.829 59.5699 114.618 59.4287 114.455C59.3632 114.381 59.2822 114.323 59.1915 114.284C59.1007 114.246 59.0025 114.228 58.9039 114.231C58.8052 114.226 58.7065 114.244 58.6156 114.283C58.5247 114.321 58.4438 114.38 58.3792 114.455C58.2422 114.62 58.1727 114.83 58.1847 115.044V118.354C58.1727 118.568 58.2422 118.778 58.3792 118.943C58.4438 119.018 58.5247 119.077 58.6156 119.115C58.7065 119.154 58.8052 119.172 58.9039 119.167C59.0054 119.173 59.1071 119.156 59.2011 119.118C59.2951 119.079 59.379 119.019 59.4463 118.943H59.4287Z" fill="#F5EFE9"/>
<path d="M65.4658 119.643C65.3041 119.479 65.1777 119.284 65.0946 119.069C65.0114 118.854 64.9732 118.625 64.9823 118.395V118.13C64.9823 118.1 64.9927 118.071 65.0118 118.047C65.0336 118.025 65.0633 118.013 65.0944 118.012H65.9551C65.9862 118.013 66.0159 118.025 66.0377 118.047C66.0493 118.058 66.0584 118.071 66.0645 118.085C66.0706 118.099 66.0735 118.114 66.0731 118.13V118.336C66.0639 118.549 66.1308 118.757 66.2617 118.925C66.3178 118.998 66.3903 119.057 66.4732 119.096C66.5561 119.136 66.6472 119.156 66.7393 119.155C66.8314 119.157 66.9229 119.139 67.0075 119.103C67.092 119.066 67.1675 119.012 67.2286 118.943C67.335 118.801 67.3992 118.633 67.4138 118.457C67.4284 118.281 67.3928 118.104 67.3111 117.947C67.2357 117.816 67.1379 117.698 67.0222 117.6C66.8984 117.494 66.6921 117.335 66.4327 117.135C66.1649 116.952 65.9071 116.756 65.6603 116.546C65.4613 116.361 65.2975 116.141 65.1769 115.898C65.0404 115.628 64.9716 115.329 64.9764 115.026C64.9649 114.795 65.0014 114.563 65.0836 114.346C65.1657 114.13 65.2918 113.932 65.454 113.766C65.8071 113.459 66.2594 113.29 66.7275 113.29C67.1956 113.29 67.6479 113.459 68.0009 113.766C68.1664 113.939 68.295 114.143 68.3791 114.367C68.4633 114.59 68.5011 114.829 68.4903 115.068V115.297C68.4908 115.313 68.4879 115.328 68.4818 115.342C68.4756 115.357 68.4665 115.369 68.4549 115.38C68.4331 115.402 68.4035 115.415 68.3724 115.415H67.5057C67.4749 115.414 67.4457 115.401 67.4239 115.379C67.4021 115.357 67.3892 115.328 67.3878 115.297V115.05C67.3964 114.838 67.3296 114.629 67.1991 114.461C67.1412 114.388 67.0666 114.329 66.9815 114.29C66.8964 114.251 66.8033 114.233 66.7098 114.237C66.6226 114.235 66.5362 114.253 66.4567 114.289C66.3772 114.324 66.3065 114.377 66.2499 114.443C66.1161 114.609 66.0508 114.82 66.0672 115.032C66.0586 115.247 66.1301 115.456 66.2676 115.621C66.4979 115.869 66.755 116.09 67.0341 116.281C67.4232 116.575 67.7179 116.811 67.9125 116.987C68.1022 117.152 68.2584 117.352 68.3724 117.576C68.523 117.918 68.572 118.296 68.5134 118.664C68.4549 119.033 68.2913 119.377 68.0422 119.655C67.8732 119.821 67.6719 119.95 67.4509 120.036C67.2298 120.121 66.9937 120.16 66.757 120.15C66.5187 120.157 66.2815 120.115 66.0596 120.028C65.8377 119.941 65.6357 119.81 65.4658 119.643Z" fill="#F5EFE9"/>
<path d="M73.3485 114.285C73.3381 114.296 73.3254 114.305 73.3111 114.312C73.2969 114.318 73.2814 114.321 73.2659 114.32H71.2024C71.1729 114.32 71.1553 114.32 71.1553 114.367V116.146C71.1553 116.181 71.1553 116.193 71.2024 116.193H72.4287C72.4598 116.193 72.4895 116.206 72.5113 116.228C72.5304 116.251 72.5408 116.281 72.5408 116.311V117.047C72.5427 117.062 72.5411 117.077 72.5362 117.092C72.5312 117.106 72.523 117.119 72.5122 117.13C72.5014 117.141 72.4882 117.149 72.4738 117.154C72.4593 117.159 72.4439 117.161 72.4287 117.159H71.2024C71.196 117.158 71.1894 117.158 71.1833 117.16C71.1771 117.162 71.1715 117.166 71.1669 117.17C71.1623 117.175 71.1588 117.18 71.1568 117.187C71.1548 117.193 71.1543 117.199 71.1553 117.206V119.02C71.1553 119.055 71.1553 119.067 71.2024 119.067H73.2659C73.2967 119.068 73.3259 119.081 73.3477 119.103C73.3695 119.125 73.3824 119.154 73.3838 119.185V119.909C73.3834 119.94 73.3707 119.97 73.3485 119.991C73.3378 120.002 73.3249 120.01 73.3106 120.016C73.2963 120.021 73.281 120.022 73.2659 120.021H70.1648C70.1497 120.022 70.1344 120.021 70.1201 120.016C70.1058 120.01 70.0929 120.002 70.0822 119.991C70.06 119.97 70.0473 119.94 70.0469 119.909V113.431C70.0473 113.4 70.06 113.37 70.0822 113.348C70.0929 113.338 70.1058 113.329 70.1201 113.324C70.1344 113.319 70.1497 113.317 70.1648 113.319H73.2659C73.281 113.317 73.2963 113.319 73.3106 113.324C73.3249 113.329 73.3378 113.338 73.3485 113.348C73.3707 113.37 73.3834 113.4 73.3838 113.431V114.155C73.3938 114.178 73.3958 114.203 73.3893 114.226C73.3829 114.25 73.3684 114.271 73.3485 114.285Z" fill="#F5EFE9"/>
<path d="M75.4235 119.597C75.0839 119.211 74.9083 118.708 74.9341 118.195V113.484C74.9322 113.469 74.9338 113.453 74.9387 113.439C74.9437 113.424 74.9519 113.411 74.9627 113.4C74.9735 113.39 74.9866 113.381 75.0011 113.376C75.0156 113.372 75.031 113.37 75.0461 113.372H75.9246C75.9397 113.37 75.955 113.372 75.9693 113.377C75.9836 113.382 75.9965 113.39 76.0071 113.401C76.0294 113.423 76.0421 113.453 76.0425 113.484V118.313C76.0301 118.537 76.0968 118.758 76.2312 118.937C76.2932 119.011 76.3707 119.071 76.4583 119.112C76.5459 119.153 76.6415 119.174 76.7382 119.174C76.8349 119.174 76.9305 119.153 77.0181 119.112C77.1057 119.071 77.1833 119.011 77.2452 118.937C77.3796 118.758 77.4464 118.537 77.4339 118.313V113.484C77.4343 113.453 77.447 113.423 77.4693 113.401C77.4799 113.39 77.4928 113.382 77.5071 113.377C77.5214 113.372 77.5367 113.37 77.5518 113.372H78.4303C78.4454 113.37 78.4608 113.372 78.4753 113.376C78.4898 113.381 78.5029 113.39 78.5137 113.4C78.5245 113.411 78.5327 113.424 78.5377 113.439C78.5426 113.453 78.5442 113.469 78.5423 113.484V118.195C78.5658 118.709 78.3882 119.212 78.047 119.597C77.6952 119.937 77.2248 120.127 76.7353 120.127C76.2457 120.127 75.7753 119.937 75.4235 119.597Z" fill="#F5EFE9"/>
<path d="M83.3593 119.632C83.1928 119.46 83.0631 119.256 82.9779 119.032C82.8928 118.808 82.8541 118.57 82.8641 118.331V115.074C82.8533 114.834 82.8916 114.594 82.9768 114.369C83.0619 114.144 83.1921 113.939 83.3593 113.766C83.5331 113.603 83.7381 113.477 83.962 113.395C84.1859 113.313 84.4241 113.277 84.6623 113.289C84.903 113.278 85.1436 113.314 85.3703 113.396C85.5969 113.478 85.8051 113.604 85.9829 113.766C86.1501 113.939 86.2803 114.144 86.3655 114.369C86.4506 114.594 86.489 114.834 86.4781 115.074V115.186C86.4865 115.215 86.4865 115.245 86.4781 115.274C86.4564 115.296 86.4267 115.309 86.3956 115.309L85.5054 115.351C85.4287 115.351 85.3933 115.309 85.3933 115.233V114.997C85.4018 114.797 85.3321 114.6 85.1988 114.45C85.1337 114.381 85.0549 114.328 84.9674 114.292C84.88 114.257 84.7861 114.24 84.6917 114.244C84.5994 114.241 84.5075 114.259 84.4222 114.294C84.3369 114.33 84.26 114.383 84.1965 114.45C84.0632 114.6 83.9935 114.797 84.002 114.997V118.413C83.9935 118.614 84.0632 118.81 84.1965 118.961C84.2591 119.029 84.3358 119.083 84.4213 119.118C84.5069 119.154 84.5992 119.171 84.6917 119.167C84.7862 119.171 84.8805 119.155 84.9681 119.12C85.0557 119.084 85.1344 119.03 85.1988 118.961C85.3321 118.81 85.4018 118.614 85.3933 118.413V118.177C85.3917 118.162 85.3935 118.147 85.3986 118.133C85.4037 118.119 85.412 118.106 85.4228 118.095C85.4446 118.073 85.4743 118.06 85.5054 118.06L86.3956 118.101C86.4267 118.101 86.4564 118.114 86.4781 118.136C86.4872 118.161 86.4872 118.188 86.4781 118.213V118.331C86.4882 118.57 86.4494 118.808 86.3643 119.032C86.2792 119.256 86.1494 119.46 85.9829 119.632C85.8085 119.801 85.6013 119.932 85.3741 120.017C85.1469 120.102 84.9046 120.139 84.6623 120.127C84.4229 120.137 84.1839 120.098 83.9599 120.013C83.736 119.928 83.5316 119.798 83.3593 119.632Z" fill="#F5EFE9"/>
<path d="M90.764 119.944L90.5812 118.937C90.5812 118.908 90.5812 118.89 90.5223 118.89H89.1368C89.1014 118.89 89.0778 118.89 89.0778 118.931L88.8892 119.944C88.8892 120.015 88.842 120.044 88.7654 120.044H87.8869C87.8044 120.044 87.769 120.003 87.7867 119.921L89.1958 113.443C89.1972 113.428 89.2016 113.414 89.2086 113.401C89.2157 113.388 89.2252 113.376 89.2367 113.367C89.2483 113.357 89.2615 113.35 89.2757 113.346C89.2899 113.342 89.3048 113.341 89.3196 113.342H90.3395C90.3542 113.341 90.3691 113.342 90.3834 113.346C90.3976 113.35 90.4108 113.357 90.4223 113.367C90.4338 113.376 90.4434 113.388 90.4504 113.401C90.4575 113.414 90.4619 113.428 90.4633 113.443L91.8783 119.921V119.962C91.8783 120.021 91.8429 120.044 91.7781 120.044H90.8878C90.8112 120.044 90.7699 120.015 90.764 119.944ZM89.3196 118.024H90.3631C90.3985 118.024 90.4162 118.024 90.4103 117.977L89.8797 115.092C89.8797 115.092 89.8796 115.092 89.8502 115.092L89.296 117.977C89.2665 118.007 89.2783 118.024 89.3196 118.024Z" fill="#F5EFE9"/>
<path d="M96.7249 114.285C96.7031 114.307 96.6735 114.32 96.6424 114.32H94.5848C94.5848 114.32 94.5376 114.32 94.5376 114.367V116.146C94.5376 116.181 94.5376 116.193 94.5848 116.193H95.7993C95.8301 116.194 95.8592 116.207 95.8811 116.229C95.9029 116.251 95.9157 116.28 95.9172 116.311V117.047C95.9167 117.078 95.904 117.107 95.8818 117.129C95.8586 117.148 95.8294 117.159 95.7993 117.159H94.5848C94.5783 117.158 94.5718 117.158 94.5656 117.16C94.5594 117.162 94.5538 117.166 94.5492 117.17C94.5446 117.175 94.5411 117.18 94.5391 117.187C94.5371 117.193 94.5366 117.199 94.5376 117.206V119.909C94.5372 119.94 94.5244 119.97 94.5022 119.991C94.4928 120.002 94.4809 120.01 94.4675 120.015C94.4542 120.021 94.4398 120.022 94.4256 120.021H93.5412C93.527 120.022 93.5126 120.021 93.4993 120.015C93.4859 120.01 93.474 120.002 93.4646 119.991C93.4424 119.97 93.4296 119.94 93.4292 119.909V113.431C93.4296 113.4 93.4424 113.37 93.4646 113.348C93.474 113.338 93.4859 113.329 93.4993 113.324C93.5126 113.319 93.527 113.317 93.5412 113.319H96.6424C96.6574 113.318 96.6724 113.32 96.6866 113.325C96.7008 113.33 96.7138 113.338 96.7249 113.348C96.7432 113.372 96.7535 113.401 96.7544 113.431V114.155C96.7616 114.177 96.7627 114.201 96.7575 114.224C96.7523 114.247 96.7411 114.268 96.7249 114.285Z" fill="#F5EFE9"/>
<path d="M101.465 114.285C101.443 114.307 101.413 114.32 101.382 114.32H99.3189C99.2835 114.32 99.2717 114.32 99.2717 114.367V116.146C99.2717 116.181 99.2717 116.193 99.3189 116.193H100.539C100.57 116.194 100.599 116.207 100.621 116.229C100.643 116.251 100.656 116.28 100.657 116.311V117.047C100.657 117.078 100.644 117.107 100.622 117.129C100.599 117.148 100.569 117.159 100.539 117.159H99.3189C99.2835 117.159 99.2717 117.159 99.2717 117.206V119.02C99.2717 119.055 99.2717 119.067 99.3189 119.067H101.382C101.413 119.067 101.443 119.08 101.465 119.102C101.476 119.112 101.486 119.125 101.492 119.139C101.498 119.154 101.501 119.169 101.5 119.184V119.909C101.5 119.94 101.487 119.969 101.465 119.991C101.454 120.001 101.441 120.009 101.427 120.014C101.412 120.019 101.397 120.022 101.382 120.021H98.2576C98.2426 120.022 98.2276 120.019 98.2134 120.014C98.1992 120.009 98.1862 120.001 98.1751 119.991C98.1568 119.968 98.1465 119.939 98.1456 119.909V113.431C98.1465 113.401 98.1568 113.372 98.1751 113.348C98.1862 113.338 98.1992 113.33 98.2134 113.325C98.2276 113.32 98.2426 113.318 98.2576 113.319H101.365C101.38 113.318 101.395 113.32 101.409 113.325C101.423 113.33 101.436 113.338 101.447 113.348C101.469 113.37 101.482 113.4 101.483 113.431V114.155C101.495 114.176 101.499 114.199 101.496 114.223C101.493 114.246 101.482 114.268 101.465 114.285ZM99.2422 112.612C99.2326 112.598 99.2274 112.582 99.2274 112.565C99.2274 112.548 99.2326 112.532 99.2422 112.518L99.8318 111.534C99.8448 111.509 99.8653 111.488 99.8906 111.474C99.9159 111.46 99.9447 111.455 99.9733 111.458H100.781C100.828 111.458 100.864 111.458 100.875 111.499C100.884 111.514 100.888 111.532 100.888 111.549C100.888 111.567 100.884 111.584 100.875 111.599L100.168 112.583C100.153 112.604 100.132 112.621 100.109 112.633C100.085 112.644 100.059 112.649 100.032 112.647H99.3719C99.3496 112.657 99.3244 112.659 99.3008 112.653C99.2771 112.646 99.2564 112.632 99.2422 112.612Z" fill="#F5EFE9"/>
<path d="M108.557 113.601C108.817 113.774 109.021 114.017 109.147 114.302C109.295 114.621 109.369 114.969 109.365 115.321C109.388 115.822 109.227 116.315 108.911 116.705C108.765 116.873 108.583 117.007 108.38 117.098C108.176 117.188 107.955 117.233 107.732 117.229H106.918C106.912 117.228 106.905 117.229 106.899 117.231C106.893 117.233 106.887 117.236 106.883 117.241C106.878 117.245 106.875 117.251 106.873 117.257C106.871 117.263 106.87 117.27 106.871 117.276V119.932C106.879 119.959 106.879 119.988 106.871 120.015C106.86 120.025 106.847 120.033 106.833 120.038C106.819 120.043 106.804 120.045 106.789 120.044H105.91C105.895 120.046 105.88 120.044 105.866 120.039C105.851 120.034 105.838 120.026 105.828 120.015C105.805 119.993 105.793 119.963 105.792 119.932V113.454C105.792 113.44 105.795 113.425 105.801 113.412C105.807 113.398 105.816 113.387 105.828 113.378C105.838 113.366 105.851 113.357 105.865 113.351C105.879 113.345 105.895 113.342 105.91 113.342H107.679C107.991 113.343 108.296 113.433 108.557 113.601ZM108.05 116.087C108.203 115.873 108.28 115.613 108.268 115.351C108.281 115.08 108.204 114.813 108.05 114.591C107.984 114.497 107.895 114.423 107.792 114.373C107.689 114.324 107.575 114.301 107.461 114.308H106.871C106.865 114.307 106.858 114.308 106.852 114.31C106.846 114.312 106.84 114.315 106.836 114.32C106.831 114.324 106.828 114.33 106.826 114.336C106.824 114.342 106.823 114.349 106.824 114.355V116.316C106.823 116.323 106.824 116.329 106.826 116.336C106.828 116.342 106.831 116.347 106.836 116.352C106.84 116.356 106.846 116.36 106.852 116.362C106.858 116.364 106.865 116.364 106.871 116.363H107.461C107.574 116.37 107.688 116.348 107.791 116.3C107.894 116.251 107.983 116.178 108.05 116.087Z" fill="#F5EFE9"/>
<path d="M113.415 119.95L112.596 117.2C112.593 117.19 112.586 117.181 112.578 117.175C112.569 117.169 112.559 117.165 112.549 117.165H112.054C112.018 117.165 112.006 117.165 112.006 117.212V119.932C112.006 119.964 111.993 119.993 111.971 120.015C111.96 120.025 111.947 120.033 111.933 120.038C111.919 120.043 111.904 120.045 111.889 120.044H111.01C110.995 120.046 110.98 120.044 110.965 120.039C110.951 120.034 110.938 120.026 110.928 120.015C110.905 119.993 110.893 119.964 110.892 119.932V113.454C110.892 113.44 110.895 113.425 110.901 113.412C110.907 113.399 110.916 113.387 110.928 113.378C110.938 113.366 110.951 113.357 110.965 113.351C110.979 113.345 110.995 113.342 111.01 113.342H112.808C113.122 113.337 113.43 113.421 113.698 113.584C113.956 113.753 114.161 113.992 114.288 114.273C114.439 114.591 114.514 114.94 114.506 115.292C114.515 115.647 114.436 115.999 114.276 116.317C114.134 116.595 113.91 116.823 113.634 116.97C113.634 116.97 113.598 116.97 113.634 117.029L114.565 119.903C114.571 119.918 114.571 119.935 114.565 119.95C114.565 120.009 114.53 120.033 114.459 120.033H113.545C113.517 120.035 113.49 120.029 113.466 120.014C113.442 119.999 113.425 119.976 113.415 119.95ZM112.006 114.355V116.258C112.006 116.287 112.006 116.305 112.054 116.305H112.643C112.751 116.308 112.859 116.285 112.956 116.238C113.054 116.191 113.139 116.121 113.203 116.034C113.359 115.83 113.436 115.577 113.421 115.321C113.434 115.056 113.358 114.795 113.203 114.579C113.138 114.493 113.053 114.424 112.956 114.377C112.858 114.33 112.751 114.306 112.643 114.308H112.054C112.018 114.308 112.006 114.326 112.006 114.379V114.355Z" fill="#F5EFE9"/>
<path d="M119.37 114.284C119.348 114.307 119.319 114.319 119.287 114.32H117.224C117.189 114.32 117.177 114.32 117.177 114.367V116.145C117.177 116.181 117.177 116.193 117.224 116.193H118.444C118.475 116.194 118.504 116.207 118.526 116.229C118.548 116.25 118.561 116.28 118.562 116.31V117.046C118.562 117.078 118.549 117.107 118.527 117.129C118.504 117.148 118.474 117.158 118.444 117.158H117.224C117.189 117.158 117.177 117.158 117.177 117.205V119.019C117.177 119.055 117.177 119.066 117.224 119.066H119.287C119.319 119.067 119.348 119.08 119.37 119.102C119.381 119.112 119.389 119.125 119.394 119.14C119.399 119.154 119.401 119.169 119.399 119.184V119.909C119.401 119.924 119.4 119.939 119.395 119.954C119.39 119.968 119.382 119.981 119.371 119.992C119.36 120.003 119.347 120.011 119.333 120.016C119.318 120.021 119.303 120.022 119.287 120.02H116.18C116.165 120.022 116.15 120.021 116.135 120.016C116.121 120.011 116.108 120.003 116.097 119.992C116.086 119.981 116.078 119.968 116.073 119.954C116.068 119.939 116.067 119.924 116.068 119.909V113.431C116.067 113.415 116.068 113.4 116.073 113.386C116.078 113.371 116.086 113.358 116.097 113.347C116.108 113.336 116.121 113.328 116.135 113.323C116.15 113.318 116.165 113.317 116.18 113.319H119.287C119.303 113.317 119.318 113.318 119.333 113.323C119.347 113.328 119.36 113.336 119.371 113.347C119.382 113.358 119.39 113.371 119.395 113.386C119.4 113.4 119.401 113.415 119.399 113.431V114.155C119.411 114.176 119.415 114.201 119.409 114.225C119.404 114.249 119.39 114.27 119.37 114.284Z" fill="#F5EFE9"/>
<path d="M121.003 120.015C120.981 119.993 120.968 119.963 120.968 119.932V113.454C120.968 113.423 120.981 113.393 121.003 113.372C121.014 113.361 121.027 113.352 121.041 113.347C121.055 113.342 121.071 113.34 121.086 113.342H121.952C121.981 113.339 122.01 113.345 122.034 113.36C122.059 113.375 122.078 113.398 122.088 113.425L123.008 115.486C123.008 115.527 123.043 115.527 123.067 115.486L123.975 113.425C123.984 113.398 124.002 113.376 124.025 113.361C124.049 113.346 124.077 113.339 124.104 113.342H124.983C124.998 113.34 125.013 113.342 125.027 113.347C125.042 113.352 125.055 113.361 125.065 113.372C125.088 113.393 125.1 113.423 125.101 113.454V119.932C125.1 119.963 125.088 119.993 125.065 120.015C125.055 120.025 125.042 120.034 125.027 120.039C125.013 120.044 124.998 120.046 124.983 120.044H124.104C124.089 120.045 124.074 120.043 124.06 120.038C124.046 120.033 124.033 120.025 124.022 120.015C124.003 119.991 123.993 119.962 123.992 119.932V115.768V115.733C123.992 115.733 123.963 115.733 123.951 115.763L123.132 117.429C123.102 117.488 123.078 117.518 123.055 117.518C123.031 117.518 123.008 117.488 122.978 117.429L122.153 115.739C122.147 115.736 122.141 115.735 122.135 115.735C122.129 115.735 122.123 115.736 122.117 115.739C122.113 115.746 122.111 115.754 122.111 115.763C122.111 115.771 122.113 115.779 122.117 115.786V119.956C122.119 119.971 122.118 119.986 122.113 120.001C122.108 120.015 122.1 120.028 122.089 120.039C122.078 120.05 122.065 120.058 122.05 120.063C122.036 120.068 122.021 120.069 122.005 120.068H121.127C121.103 120.076 121.078 120.075 121.055 120.065C121.032 120.055 121.014 120.037 121.003 120.015Z" fill="#F5EFE9"/>
<path d="M126.911 120.015C126.888 119.993 126.876 119.963 126.875 119.932V113.454C126.876 113.423 126.888 113.394 126.911 113.372C126.921 113.361 126.934 113.353 126.948 113.348C126.963 113.343 126.978 113.341 126.993 113.342H127.872C127.887 113.341 127.902 113.343 127.916 113.348C127.931 113.353 127.944 113.361 127.954 113.372C127.976 113.394 127.989 113.423 127.99 113.454V119.932C127.989 119.963 127.976 119.993 127.954 120.015C127.944 120.026 127.931 120.034 127.916 120.039C127.902 120.044 127.887 120.046 127.872 120.044H126.993C126.978 120.046 126.963 120.044 126.948 120.039C126.934 120.034 126.921 120.026 126.911 120.015Z" fill="#F5EFE9"/>
<path d="M130.236 119.596C129.899 119.209 129.724 118.707 129.746 118.195V113.484C129.738 113.457 129.738 113.428 129.746 113.401C129.757 113.391 129.77 113.383 129.785 113.378C129.799 113.373 129.814 113.371 129.829 113.372H130.707C130.722 113.37 130.738 113.372 130.752 113.377C130.766 113.382 130.779 113.39 130.79 113.401C130.812 113.423 130.825 113.453 130.825 113.484V118.313C130.815 118.536 130.882 118.756 131.014 118.937C131.074 119.013 131.152 119.074 131.24 119.115C131.328 119.155 131.424 119.175 131.521 119.172C131.618 119.178 131.716 119.16 131.804 119.119C131.893 119.077 131.97 119.015 132.028 118.937C132.164 118.758 132.233 118.537 132.223 118.313V113.484C132.214 113.457 132.214 113.428 132.223 113.401C132.234 113.391 132.247 113.383 132.261 113.378C132.275 113.373 132.29 113.371 132.305 113.372H133.184C133.199 113.37 133.214 113.372 133.228 113.377C133.243 113.382 133.255 113.39 133.266 113.401C133.288 113.423 133.301 113.453 133.301 113.484V118.195C133.326 118.71 133.146 119.214 132.8 119.596C132.448 119.937 131.978 120.127 131.489 120.127C130.999 120.127 130.529 119.937 130.177 119.596H130.236Z" fill="#F5EFE9"/>
<path d="M135.135 120.015C135.113 119.993 135.1 119.963 135.1 119.932V113.454C135.1 113.423 135.113 113.393 135.135 113.372C135.145 113.361 135.157 113.353 135.17 113.347C135.183 113.342 135.198 113.34 135.212 113.342H136.084C136.113 113.34 136.141 113.347 136.166 113.361C136.19 113.376 136.209 113.398 136.22 113.425L137.134 115.486C137.134 115.527 137.175 115.527 137.193 115.486L138.101 113.425C138.111 113.398 138.13 113.375 138.154 113.36C138.179 113.345 138.208 113.339 138.236 113.342H139.115C139.13 113.341 139.145 113.343 139.159 113.348C139.173 113.354 139.186 113.361 139.197 113.372C139.216 113.395 139.226 113.424 139.227 113.454V119.932C139.226 119.962 139.216 119.991 139.197 120.015C139.186 120.025 139.173 120.033 139.159 120.038C139.145 120.043 139.13 120.045 139.115 120.044H138.236C138.221 120.046 138.206 120.044 138.192 120.039C138.177 120.034 138.164 120.025 138.154 120.015C138.132 119.993 138.119 119.963 138.118 119.932V115.768V115.733C138.118 115.733 138.118 115.733 138.083 115.763L137.258 117.429C137.258 117.488 137.205 117.518 137.181 117.518C137.157 117.518 137.14 117.488 137.104 117.429L136.285 115.739C136.278 115.736 136.271 115.735 136.264 115.735C136.257 115.735 136.25 115.736 136.244 115.739C136.244 115.739 136.244 115.739 136.244 115.786V119.956C136.243 119.987 136.23 120.016 136.208 120.038C136.198 120.049 136.185 120.057 136.17 120.062C136.156 120.067 136.141 120.069 136.126 120.068H135.247C135.225 120.075 135.201 120.074 135.18 120.064C135.159 120.054 135.143 120.036 135.135 120.015Z" fill="#F5EFE9"/>
<path d="M76.9093 45.1873V40.2287C75.5415 39.3983 73.9614 38.3736 72.0807 37.0426C60.6549 28.9863 57.9664 16.4307 57.9664 16.4307C54.7842 19.6102 52.9965 23.9221 52.9965 28.418C52.9965 32.914 54.7842 37.2258 57.9664 40.4053L69.8462 52.272C70.7405 53.1615 71.7289 53.9514 72.7941 54.6276C74.6512 54.233 76.6675 53.8856 78.8136 53.5793C77.5567 50.9601 76.9059 48.0919 76.9093 45.1873Z" fill="#DEBD9A"/>
<path d="M73.3128 27.985C74.5863 28.7918 75.7772 29.6221 76.9092 30.4643V19.428C76.9067 17.3777 77.2311 15.3401 77.8702 13.3917C74.6638 11.7088 71.0026 11.0943 67.4216 11.6378C63.8407 12.1814 60.5275 13.8545 57.9663 16.4128C61.321 21.0593 65.6602 23.097 73.3128 27.985Z" fill="#DEBD9A"/>
<path d="M72.0807 37.0427C73.9673 38.3737 75.5415 39.3984 76.9093 40.2288V30.4646C75.7773 29.6224 74.5864 28.7921 73.3129 27.9852C65.6485 23.1208 61.3211 21.0596 57.9841 16.4131C57.9664 16.4131 60.6548 28.9864 72.0807 37.0427Z" fill="#073044"/>
<path d="M120.178 28.2912C125.14 22.5045 131.747 18.3618 139.121 16.4128C136.559 13.8545 133.246 12.1814 129.665 11.6378C126.084 11.0943 122.423 11.7088 119.217 13.3917C119.856 15.3401 120.18 17.3777 120.178 19.428V28.2912Z" fill="#DEBD9A"/>
<path d="M139.121 40.3878C142.303 37.2082 144.091 32.8964 144.091 28.4004C144.091 23.9045 142.303 19.5926 139.121 16.4131C134.463 19.764 132.405 24.069 127.536 31.7248C125.416 35.0696 122.95 38.1825 120.178 41.012V45.1756C120.187 48.07 119.546 50.9296 118.303 53.5441C120.449 53.8503 122.465 54.1978 124.317 54.5924C125.383 53.9173 126.371 53.1274 127.264 52.2367L139.121 40.3878Z" fill="#DEBD9A"/>
<path d="M120.178 28.2914V41.0237C122.949 38.1942 125.416 35.0813 127.536 31.7366C132.405 24.0807 134.463 19.7639 139.121 16.4248C131.748 18.3705 125.142 22.509 120.178 28.2914Z" fill="#073044"/>
<path d="M103.316 52.3249L103.24 52.2542C103.033 52.0422 102.833 51.8302 102.65 51.6123L102.526 52.3013L103.316 52.3249Z" fill="#DEBD9A"/>
<path d="M92.6449 31.3066C92.3761 29.7257 92.1931 28.1313 92.0966 26.5306C91.6277 17.2503 93.8663 8.03375 98.5406 0H96.3592C91.1992 0 86.2506 2.04752 82.6019 5.69213C78.9532 9.33674 76.9034 14.2799 76.9034 19.4341V45.1932C76.9044 48.0835 77.5531 50.9368 78.8019 53.544C83.7673 52.8631 88.7666 52.4561 93.7769 52.325C95.0975 52.2818 96.4378 52.2582 97.7978 52.2543C97.5692 50.8649 97.2661 49.4888 96.8898 48.1319C95.7696 44.1155 94.2309 40.4937 92.6449 31.3066Z" fill="#ED7F47"/>
<path d="M119.217 13.3919C117.942 9.49792 115.467 6.10611 112.146 3.70101C108.826 1.29591 104.829 0.000559766 100.728 0H98.5406C97.3614 7.21419 99.4249 12.9561 101.936 24.2456C102.273 25.7826 102.561 27.2785 102.791 28.7449C104.036 36.3213 103.983 44.054 102.632 51.6124C102.833 51.8303 103.033 52.0423 103.222 52.2543L103.298 52.325C108.319 52.4553 113.328 52.8623 118.303 53.544C119.549 50.9341 120.193 48.0787 120.19 45.1873V19.4283C120.188 17.3773 119.86 15.3396 119.217 13.3919Z" fill="#ED7F47"/>
<path d="M102.791 28.7449C102.561 27.2785 102.272 25.8003 101.936 24.2456C99.4248 12.9738 97.3731 7.21419 98.5405 0C93.8662 8.03375 91.6276 17.2503 92.0965 26.5306C92.1929 28.1313 92.376 29.7257 92.6448 31.3066C94.2307 40.4937 95.7695 44.1155 96.8838 48.1378C97.2601 49.4947 97.5631 50.8708 97.7917 52.2602H98.5405C99.8847 52.2602 101.205 52.2602 102.508 52.3073L102.632 51.6183C103.983 44.058 104.037 36.3232 102.791 28.7449Z" fill="#073044"/>
<path d="M118.78 56.8419C118.061 56.7241 117.312 56.6122 116.534 56.5121C114.034 56.1765 111.258 55.9232 108.28 55.7289C106.205 55.5993 104.035 55.511 101.795 55.4639C100.728 55.4639 99.6372 55.4639 98.5347 55.4639H98.1868C94.9088 55.4639 91.7546 55.5758 88.795 55.7583C85.8354 55.9409 83.0467 56.2059 80.541 56.5416C79.7628 56.6417 79.014 56.7536 78.2948 56.8714C71.727 57.8961 67.6 59.4626 67.6 61.2058C67.6 62.1009 68.6966 62.9725 70.6539 63.7028C73.6843 62.525 78.79 61.5768 85.0807 61.0114C89.1369 60.6463 93.6825 60.4225 98.4875 60.4225H98.5465H100.315C104.495 60.4696 108.451 60.664 112.024 61.0114C118.315 61.6004 123.42 62.5308 126.451 63.7028C128.408 62.949 129.505 62.1009 129.505 61.2058C129.505 59.4626 125.336 57.8961 118.78 56.8419Z" fill="#ED7F47"/>
</g>
<defs>
<clipPath id="clip0_244_940">
<rect width="195" height="120.127" fill="white"/>
</clipPath>
</defs>
</svg>
