<svg width="288" height="73" viewBox="0 0 288 73" fill="none" xmlns="http://www.w3.org/2000/svg">
<path d="M24.5708 46.8823V42.1765C23.2802 41.3885 21.7893 40.416 20.0147 39.153C9.23334 31.5075 6.69656 19.5922 6.69656 19.5922C3.69382 22.6096 2.00696 26.7016 2.00696 30.9682C2.00696 35.2349 3.69382 39.3268 6.69656 42.3442L17.9062 53.6056C18.7501 54.4498 19.6827 55.1993 20.6878 55.8411C22.4402 55.4667 24.3427 55.1369 26.3677 54.8463C25.1818 52.3606 24.5677 49.6387 24.5708 46.8823Z" fill="white"/>
<path d="M21.1773 30.5574C22.379 31.3231 23.5027 32.1111 24.5709 32.9103V22.4369C24.5685 20.4912 24.8746 18.5575 25.4776 16.7084C22.4521 15.1114 18.9975 14.5282 15.6185 15.044C12.2395 15.5598 9.11332 17.1476 6.69656 19.5755C9.86197 23.985 13.9564 25.9187 21.1773 30.5574Z" fill="white"/>
<path d="M65.3985 30.8481C70.0808 25.3565 76.3147 21.425 83.2728 19.5755C80.8561 17.1476 77.7298 15.5598 74.3509 15.044C70.9719 14.5282 67.5173 15.1114 64.4917 16.7084C65.0948 18.5575 65.4009 20.4912 65.3985 22.4369V30.8481Z" fill="white"/>
<path d="M83.2728 42.3274C86.2756 39.31 87.9624 35.2181 87.9624 30.9515C87.9624 26.6848 86.2756 22.5928 83.2728 19.5755C78.878 22.7555 76.9364 26.8409 72.3413 34.1063C70.341 37.2805 68.0139 40.2346 65.3985 42.9198V46.8711C65.4071 49.6179 64.8026 52.3316 63.6295 54.8128C65.6544 55.1034 67.557 55.4331 69.3039 55.8076C70.3097 55.167 71.2425 54.4173 72.0854 53.5721L83.2728 42.3274Z" fill="white"/>
<path d="M39.4187 33.71C39.1651 32.2096 38.9923 30.6966 38.9014 29.1775C38.4589 20.3706 40.5712 11.624 44.9818 4H42.9235C38.0546 4 33.3851 5.9431 29.9422 9.40183C26.4994 12.8606 24.5652 17.5516 24.5652 22.443V46.8883C24.5661 49.6311 25.1782 52.339 26.3565 54.8132C31.0419 54.167 35.7592 53.7808 40.4868 53.6563C41.733 53.6153 42.9977 53.593 44.2809 53.5893C44.0652 52.2708 43.7792 50.9648 43.4242 49.6771C42.3672 45.8656 40.9152 42.4285 39.4187 33.71Z" fill="white"/>
<path d="M64.4917 16.7089C63.2884 13.0135 60.9534 9.79469 57.8202 7.51225C54.687 5.22982 50.916 4.00053 47.0458 4H44.9818C43.8692 10.8463 45.8163 16.2953 48.1862 27.009C48.5033 28.4677 48.7759 29.8872 48.9929 31.2788C50.1676 38.4688 50.1168 45.8072 48.8427 52.9801C49.0318 53.1869 49.2209 53.3881 49.399 53.5893L49.4713 53.6563C54.2082 53.78 58.9348 54.1662 63.6294 54.8132C64.8047 52.3364 65.413 49.6266 65.4096 46.8827V22.4374C65.4084 20.491 65.0985 18.5573 64.4917 16.7089Z" fill="white"/>
<path d="M64.08 57.9429C63.4013 57.8312 62.6948 57.725 61.9605 57.63C59.6017 57.3114 56.9815 57.0711 54.1721 56.8867C52.2139 56.7637 50.1667 56.6799 48.0527 56.6352C47.0458 56.6352 46.0166 56.6352 44.9763 56.6352H44.6481C41.555 56.6352 38.5787 56.7413 35.786 56.9146C32.9933 57.0878 30.362 57.3394 27.9977 57.6579C27.2633 57.7529 26.5568 57.8591 25.8781 57.9709C19.6808 58.9433 15.7866 60.4299 15.7866 62.0842C15.7866 62.9337 16.8214 63.7609 18.6683 64.4539C21.5278 63.3361 26.3454 62.4363 32.2812 61.8998C36.1087 61.5533 40.3978 61.3409 44.9318 61.3409H46.6563C50.6006 61.3856 54.3334 61.5701 57.7047 61.8998C63.6405 62.4587 68.4582 63.3417 71.3176 64.4539C73.1646 63.7385 74.1993 62.9337 74.1993 62.0842C74.1993 60.4299 70.2662 58.9433 64.08 57.9429Z" fill="white"/>
<path d="M112.562 47.9192L110.047 38.8541C110.003 38.7703 109.947 38.7256 109.886 38.7256H108.773C108.751 38.7219 108.728 38.7235 108.707 38.7303C108.685 38.737 108.665 38.7488 108.649 38.7645C108.633 38.7803 108.621 38.7996 108.613 38.821C108.606 38.8424 108.603 38.8652 108.606 38.8877V47.8297C108.608 47.8815 108.6 47.9332 108.58 47.9814C108.561 48.0295 108.532 48.0731 108.495 48.1092C108.459 48.1471 108.416 48.1772 108.368 48.1974C108.32 48.2176 108.269 48.2275 108.217 48.2265H104.395C104.343 48.2279 104.291 48.2181 104.243 48.1979C104.195 48.1776 104.152 48.1474 104.117 48.1092C104.079 48.0733 104.049 48.03 104.029 47.9819C104.009 47.9337 103.999 47.8819 104 47.8297V25.6255C103.999 25.5733 104.009 25.5215 104.029 25.4734C104.049 25.4252 104.079 25.3819 104.117 25.3461C104.152 25.3078 104.195 25.2776 104.243 25.2573C104.291 25.2371 104.343 25.2273 104.395 25.2287H110.993C112.116 25.2063 113.222 25.511 114.176 26.106C115.131 26.7011 115.894 27.561 116.372 28.582C116.899 29.701 117.162 30.9268 117.14 32.1644C117.165 33.3447 116.913 34.5143 116.406 35.5791C115.95 36.5219 115.25 37.3247 114.381 37.9041C114.343 37.9244 114.311 37.953 114.286 37.9879C114.275 38.0044 114.269 38.0239 114.269 38.0438C114.269 38.0637 114.275 38.0831 114.286 38.0997L117.29 47.785L117.324 47.9192C117.324 48.1371 117.207 48.2489 116.968 48.2489H113.046C112.939 48.2644 112.83 48.2392 112.74 48.1782C112.651 48.1172 112.587 48.0248 112.562 47.9192ZM108.606 29.4091V34.9979C108.606 35.1097 108.662 35.16 108.773 35.16H110.242C110.562 35.1707 110.881 35.1049 111.171 34.9679C111.461 34.8309 111.715 34.6266 111.911 34.3719C112.362 33.7575 112.586 33.0048 112.545 32.2426C112.593 31.4571 112.369 30.6791 111.911 30.0406C111.715 29.7859 111.461 29.5817 111.171 29.4447C110.881 29.3077 110.562 29.2419 110.242 29.2526H108.773C108.751 29.2491 108.729 29.2507 108.708 29.2571C108.687 29.2636 108.668 29.2748 108.652 29.2899C108.636 29.305 108.623 29.3236 108.615 29.3442C108.607 29.3649 108.604 29.3871 108.606 29.4091Z" fill="white"/>
<path d="M123.477 46.7348C122.869 46.1134 122.396 45.3727 122.087 44.5592C121.778 43.7456 121.639 42.8766 121.68 42.0067V31.4998C121.64 30.63 121.779 29.7614 122.088 28.9479C122.398 28.1345 122.87 27.3937 123.477 26.7717C124.823 25.6277 126.529 25 128.292 25C130.055 25 131.76 25.6277 133.106 26.7717C133.718 27.3911 134.194 28.1311 134.506 28.9448C134.818 29.7586 134.959 30.6286 134.92 31.4998V42.0067C134.96 42.8781 134.82 43.7483 134.508 44.5623C134.196 45.3762 133.718 46.116 133.106 46.7348C131.76 47.8788 130.055 48.5065 128.292 48.5065C126.529 48.5065 124.823 47.8788 123.477 46.7348ZM129.752 43.8957C130.137 43.4252 130.335 42.8279 130.308 42.2191V31.321C130.336 30.7122 130.138 30.1147 129.752 29.6443C129.571 29.4327 129.345 29.2649 129.091 29.1536C128.837 29.0422 128.56 28.9903 128.283 29.0016C128.008 28.9891 127.734 29.0406 127.482 29.1521C127.23 29.2636 127.008 29.432 126.831 29.6443C126.45 30.117 126.252 30.7128 126.275 31.321V42.2191C126.252 42.8272 126.45 43.4229 126.831 43.8957C127.008 44.1071 127.231 44.2748 127.483 44.3862C127.735 44.4976 128.008 44.5497 128.283 44.5384C128.56 44.5486 128.836 44.496 129.09 44.3848C129.344 44.2736 129.571 44.1065 129.752 43.8957Z" fill="white"/>
<path d="M143.365 48.0983C143.329 48.0614 143.3 48.0177 143.281 47.9698C143.262 47.9218 143.253 47.8705 143.253 47.8189V39.2848L143.22 39.0836L138.642 25.7208C138.619 25.67 138.61 25.6143 138.614 25.5588C138.614 25.3632 138.731 25.2626 138.97 25.2626H142.992C143.095 25.2542 143.197 25.2828 143.28 25.3432C143.364 25.4036 143.423 25.4919 143.448 25.5923L145.473 33.4166C145.473 33.4837 145.529 33.5116 145.573 33.5116C145.618 33.5116 145.651 33.4837 145.673 33.4166L147.698 25.5923C147.722 25.4913 147.781 25.4024 147.865 25.3418C147.949 25.2812 148.052 25.253 148.155 25.2626H152.177C152.231 25.2583 152.285 25.2668 152.335 25.2871C152.385 25.3075 152.43 25.3393 152.466 25.3799C152.5 25.429 152.522 25.4862 152.527 25.5459C152.533 25.6057 152.524 25.666 152.499 25.7208L147.893 39.0836L147.86 39.2848V47.8189C147.86 47.8705 147.851 47.9218 147.832 47.9698C147.813 48.0177 147.784 48.0614 147.748 48.0983C147.712 48.1358 147.669 48.1655 147.621 48.1856C147.573 48.2058 147.522 48.216 147.47 48.2157H143.643C143.591 48.216 143.54 48.2058 143.492 48.1856C143.444 48.1655 143.401 48.1358 143.365 48.0983Z" fill="white"/>
<path d="M164.594 47.8857L164.071 44.7336C164.071 44.6218 164.004 44.5659 163.876 44.5659H159.787C159.659 44.5659 159.592 44.6106 159.592 44.7L159.036 47.8857C159.035 47.939 159.023 47.9914 159 48.0396C158.977 48.0877 158.944 48.1304 158.904 48.1648C158.863 48.1992 158.816 48.2245 158.765 48.239C158.714 48.2535 158.66 48.2569 158.608 48.2489H154.786C154.502 48.2489 154.391 48.1036 154.458 47.8186L159.264 25.6255C159.268 25.5736 159.281 25.5229 159.305 25.4764C159.328 25.4299 159.36 25.3885 159.399 25.3546C159.439 25.3208 159.485 25.2952 159.534 25.2794C159.583 25.2635 159.635 25.2577 159.687 25.2623H164.098C164.15 25.2577 164.202 25.2635 164.251 25.2794C164.301 25.2952 164.346 25.3208 164.386 25.3546C164.425 25.3885 164.457 25.4299 164.481 25.4764C164.504 25.5229 164.518 25.5736 164.521 25.6255L169.294 47.8186L169.328 47.9527C169.328 48.1483 169.211 48.2489 168.966 48.2489H165.005C164.954 48.2552 164.902 48.2505 164.852 48.2352C164.803 48.2199 164.757 48.1942 164.718 48.1599C164.679 48.1256 164.648 48.0835 164.627 48.0362C164.605 47.9889 164.594 47.9376 164.594 47.8857ZM160.477 40.9891H163.286C163.375 40.9891 163.42 40.9332 163.42 40.827L162.046 32.3544C162.023 32.2874 161.99 32.2538 161.945 32.2538C161.901 32.2538 161.868 32.2874 161.851 32.3544L160.31 40.827C160.293 40.9332 160.343 40.9891 160.477 40.9891Z" fill="white"/>
<path d="M174.184 48.132C174.148 48.0951 174.12 48.0514 174.101 48.0035C174.082 47.9555 174.072 47.9042 174.073 47.8526V25.6595C174.072 25.6077 174.082 25.5562 174.101 25.5081C174.12 25.46 174.149 25.4162 174.185 25.3793C174.221 25.3423 174.265 25.313 174.312 25.293C174.36 25.273 174.411 25.2627 174.463 25.2627H178.29C178.342 25.2627 178.393 25.273 178.44 25.293C178.488 25.313 178.531 25.3423 178.567 25.3793C178.604 25.4162 178.632 25.46 178.651 25.5081C178.671 25.5562 178.68 25.6077 178.679 25.6595V44.1025C178.677 44.1252 178.679 44.1481 178.687 44.1697C178.694 44.1913 178.706 44.2109 178.722 44.227C178.738 44.2432 178.758 44.2554 178.779 44.2629C178.801 44.2704 178.824 44.2728 178.846 44.2701H185.706C185.757 44.2694 185.808 44.2789 185.856 44.2981C185.904 44.3173 185.947 44.3458 185.984 44.3819C186.021 44.4182 186.051 44.4616 186.071 44.5096C186.091 44.5577 186.101 44.6093 186.101 44.6614V47.8526C186.099 47.9573 186.057 48.0574 185.983 48.1315C185.91 48.2056 185.81 48.2479 185.706 48.2494H174.463C174.411 48.2497 174.359 48.2395 174.312 48.2193C174.264 48.1991 174.22 48.1694 174.184 48.132Z" fill="white"/>
<path d="M191.931 46.7344C191.327 46.1143 190.858 45.3758 190.552 44.5652C190.245 43.7545 190.109 42.8891 190.151 42.023V31.4043C190.11 30.5451 190.248 29.6869 190.554 28.8837C190.86 28.0805 191.329 27.3498 191.931 26.7377C193.256 25.6215 194.93 25.0098 196.659 25.0098C198.389 25.0098 200.063 25.6215 201.388 26.7377C201.991 27.349 202.46 28.0796 202.767 28.883C203.073 29.6863 203.21 30.545 203.168 31.4043V31.762C203.169 31.8139 203.159 31.8653 203.14 31.9135C203.121 31.9616 203.092 32.0054 203.056 32.0423C203.02 32.0792 202.977 32.1085 202.929 32.1285C202.881 32.1485 202.83 32.1588 202.779 32.1588L198.951 32.3209C198.69 32.3209 198.562 32.2035 198.562 31.9632V31.0858C198.587 30.5238 198.4 29.973 198.039 29.5433C197.863 29.3462 197.645 29.1909 197.401 29.0884C197.158 28.986 196.895 28.939 196.632 28.9509C196.374 28.9413 196.118 28.9895 195.881 29.092C195.644 29.1945 195.433 29.3486 195.263 29.5433C194.902 29.973 194.715 30.5238 194.74 31.0858V42.4142C194.713 42.9714 194.9 43.5176 195.263 43.94C195.438 44.1264 195.65 44.2728 195.887 44.3693C196.123 44.4657 196.377 44.5099 196.632 44.4989C196.892 44.5123 197.153 44.4693 197.396 44.3729C197.638 44.2765 197.858 44.1289 198.039 43.94C198.402 43.5176 198.589 42.9714 198.562 42.4142V41.5256C198.561 41.4734 198.571 41.4216 198.591 41.3735C198.611 41.3254 198.641 41.282 198.679 41.2462C198.714 41.2091 198.756 41.1799 198.803 41.1607C198.85 41.1414 198.901 41.1324 198.951 41.1344L202.779 41.2965C203.04 41.2965 203.168 41.4139 203.168 41.6598V42.0174C203.211 42.8851 203.074 43.7522 202.764 44.5634C202.455 45.3746 201.98 46.1121 201.371 46.7288C200.053 47.8597 198.376 48.481 196.643 48.481C194.909 48.481 193.232 47.8597 191.914 46.7288L191.931 46.7344Z" fill="white"/>
<path d="M209.727 46.7342C209.12 46.1128 208.647 45.3721 208.338 44.5585C208.028 43.7449 207.89 42.876 207.93 42.0061V31.4992C207.891 30.6294 208.03 29.7607 208.339 28.9473C208.648 28.1339 209.121 27.3931 209.727 26.7711C211.072 25.6275 212.777 25 214.539 25C216.301 25 218.006 25.6275 219.351 26.7711C219.964 27.3897 220.441 28.1295 220.753 28.9435C221.065 29.7575 221.206 30.6278 221.165 31.4992V42.0061C221.207 42.8776 221.067 43.7482 220.755 44.5624C220.442 45.3765 219.964 46.1162 219.351 46.7342C218.006 47.8777 216.301 48.5053 214.539 48.5053C212.777 48.5053 211.072 47.8777 209.727 46.7342ZM216.002 43.8951C216.388 43.4245 216.586 42.8272 216.559 42.2185V31.3203C216.586 30.7115 216.388 30.114 216.002 29.6437C215.822 29.4324 215.595 29.2648 215.341 29.1535C215.087 29.0422 214.811 28.9901 214.534 29.001C214.258 28.9889 213.983 29.0405 213.73 29.152C213.478 29.2634 213.254 29.4316 213.076 29.6437C212.697 30.1176 212.499 30.7126 212.52 31.3203V42.2185C212.5 42.8262 212.697 43.421 213.076 43.8951C213.255 44.1062 213.479 44.2738 213.731 44.3851C213.984 44.4965 214.258 44.5487 214.534 44.5378C214.811 44.5475 215.086 44.4948 215.34 44.3836C215.595 44.2724 215.821 44.1055 216.002 43.8951Z" fill="white"/>
<path d="M238.177 29.119C238.141 29.157 238.098 29.187 238.05 29.2072C238.002 29.2275 237.951 29.2374 237.899 29.2364H231.101C231.079 29.2337 231.057 29.236 231.036 29.2432C231.015 29.2504 230.996 29.2622 230.981 29.2779C230.965 29.2935 230.953 29.3125 230.946 29.3334C230.939 29.3543 230.937 29.3765 230.939 29.3985V34.5904C230.937 34.6124 230.939 34.6346 230.946 34.6555C230.953 34.6764 230.965 34.6954 230.981 34.7111C230.996 34.7267 231.015 34.7386 231.036 34.7457C231.057 34.7529 231.079 34.7552 231.101 34.7525H234.995C235.046 34.7518 235.098 34.7614 235.146 34.7807C235.193 34.8 235.237 34.8287 235.274 34.8651C235.311 34.9015 235.34 34.9449 235.36 34.9927C235.38 35.0405 235.39 35.0919 235.39 35.1437V38.3517C235.388 38.4565 235.346 38.5566 235.272 38.6307C235.199 38.7048 235.099 38.7471 234.995 38.7485H231.101C231.079 38.7458 231.057 38.7481 231.036 38.7553C231.015 38.7625 230.996 38.7743 230.981 38.79C230.965 38.8056 230.953 38.8246 230.946 38.8455C230.939 38.8664 230.937 38.8886 230.939 38.9106V47.8526C230.94 47.9048 230.93 47.9566 230.91 48.0047C230.89 48.0529 230.86 48.0962 230.822 48.1321C230.787 48.1703 230.744 48.2005 230.696 48.2208C230.648 48.241 230.596 48.2508 230.544 48.2494H226.722C226.671 48.2504 226.619 48.2405 226.571 48.2203C226.523 48.2001 226.48 48.17 226.444 48.1321C226.407 48.096 226.378 48.0524 226.359 48.0043C226.34 47.9561 226.331 47.9044 226.333 47.8526V25.6596C226.331 25.6077 226.339 25.5559 226.359 25.5077C226.378 25.4595 226.407 25.416 226.444 25.3801C226.48 25.3422 226.523 25.3121 226.571 25.2919C226.619 25.2717 226.671 25.2618 226.722 25.2628H237.882C237.934 25.2618 237.986 25.2717 238.033 25.2919C238.081 25.3121 238.125 25.3422 238.16 25.3801C238.198 25.4157 238.228 25.4591 238.249 25.5072C238.269 25.5554 238.278 25.6073 238.277 25.6596V28.8508C238.279 28.8999 238.271 28.949 238.254 28.9951C238.237 29.0411 238.211 29.0833 238.177 29.119Z" fill="white"/>
<path d="M254.571 29.119C254.536 29.1572 254.493 29.1874 254.445 29.2077C254.397 29.2279 254.345 29.2377 254.293 29.2363H247.478C247.456 29.2327 247.433 29.2343 247.412 29.241C247.39 29.2478 247.371 29.2595 247.354 29.2752C247.338 29.291 247.326 29.3103 247.318 29.3317C247.311 29.3531 247.309 29.3759 247.311 29.3984V34.5904C247.309 34.6128 247.311 34.6357 247.318 34.6571C247.326 34.6785 247.338 34.6978 247.354 34.7135C247.371 34.7293 247.39 34.741 247.412 34.7478C247.433 34.7545 247.456 34.7561 247.478 34.7525H251.373C251.424 34.7509 251.475 34.76 251.523 34.7791C251.571 34.7982 251.615 34.8269 251.651 34.8636C251.688 34.9002 251.716 34.944 251.735 34.9922C251.754 35.0403 251.764 35.0919 251.762 35.1437V38.3516C251.763 38.4035 251.753 38.455 251.734 38.5031C251.715 38.5512 251.686 38.595 251.65 38.6319C251.614 38.6688 251.57 38.6981 251.523 38.7181C251.475 38.7381 251.424 38.7484 251.373 38.7484H247.478C247.456 38.7448 247.433 38.7464 247.412 38.7531C247.39 38.7599 247.371 38.7716 247.354 38.7873C247.338 38.8031 247.326 38.8224 247.318 38.8438C247.311 38.8652 247.309 38.888 247.311 38.9105V47.8526C247.312 47.9042 247.303 47.9555 247.284 48.0035C247.265 48.0514 247.236 48.0951 247.2 48.132C247.164 48.1694 247.121 48.1991 247.073 48.2193C247.025 48.2395 246.974 48.2497 246.922 48.2494H243.095C243.043 48.2497 242.991 48.2395 242.944 48.2193C242.896 48.1991 242.853 48.1694 242.816 48.132C242.781 48.0951 242.752 48.0514 242.733 48.0035C242.714 47.9555 242.705 47.9042 242.705 47.8526V25.6595C242.705 25.6077 242.714 25.5562 242.733 25.5081C242.753 25.46 242.781 25.4162 242.817 25.3793C242.854 25.3423 242.897 25.313 242.944 25.293C242.992 25.273 243.043 25.2627 243.095 25.2627H254.271C254.375 25.2641 254.475 25.3064 254.549 25.3805C254.622 25.4546 254.664 25.5547 254.666 25.6595V28.8507C254.669 28.8995 254.662 28.9483 254.645 28.9944C254.629 29.0404 254.604 29.0828 254.571 29.119Z" fill="white"/>
<path d="M270.96 29.119C270.924 29.1564 270.881 29.1861 270.833 29.2062C270.785 29.2264 270.734 29.2367 270.682 29.2363H263.851C263.828 29.2327 263.806 29.2343 263.784 29.241C263.762 29.2478 263.743 29.2595 263.727 29.2752C263.71 29.291 263.698 29.3103 263.691 29.3317C263.683 29.3531 263.681 29.3759 263.684 29.3984V34.5904C263.681 34.6128 263.683 34.6357 263.691 34.6571C263.698 34.6785 263.71 34.6978 263.727 34.7136C263.743 34.7293 263.762 34.741 263.784 34.7478C263.806 34.7545 263.828 34.7561 263.851 34.7525H267.773C267.824 34.7509 267.875 34.76 267.923 34.7791C267.971 34.7982 268.015 34.8269 268.051 34.8636C268.088 34.9002 268.117 34.944 268.136 34.9922C268.155 35.0403 268.164 35.0919 268.162 35.1437V38.3516C268.163 38.4035 268.153 38.455 268.134 38.5031C268.115 38.5512 268.086 38.595 268.05 38.6319C268.014 38.6688 267.971 38.6981 267.923 38.7181C267.875 38.7381 267.824 38.7484 267.773 38.7484H263.851C263.828 38.7448 263.806 38.7464 263.784 38.7531C263.762 38.7599 263.743 38.7716 263.727 38.7874C263.71 38.8031 263.698 38.8224 263.691 38.8438C263.683 38.8652 263.681 38.888 263.684 38.9105V44.1304C263.681 44.1531 263.684 44.1761 263.691 44.1976C263.698 44.2192 263.711 44.2388 263.727 44.255C263.743 44.2711 263.762 44.2834 263.784 44.2908C263.805 44.2983 263.828 44.3008 263.851 44.2981H270.704C270.756 44.2966 270.807 44.3056 270.855 44.3247C270.903 44.3438 270.947 44.3726 270.983 44.4092C271.02 44.4459 271.048 44.4896 271.067 44.5378C271.086 44.586 271.095 44.6375 271.094 44.6893V47.8526C271.095 47.9042 271.085 47.9555 271.066 48.0035C271.047 48.0514 271.019 48.0951 270.983 48.132C270.946 48.1694 270.903 48.1991 270.855 48.2193C270.808 48.2395 270.756 48.2497 270.704 48.2494H259.472C259.42 48.2507 259.369 48.2409 259.321 48.2207C259.273 48.2005 259.23 48.1702 259.194 48.132C259.156 48.0962 259.127 48.0528 259.106 48.0047C259.086 47.9566 259.076 47.9047 259.077 47.8526V25.6595C259.079 25.5547 259.121 25.4546 259.195 25.3805C259.269 25.3064 259.368 25.2641 259.472 25.2627H270.704C270.756 25.2627 270.807 25.273 270.855 25.293C270.902 25.313 270.945 25.3423 270.982 25.3793C271.018 25.4162 271.046 25.46 271.066 25.5081C271.085 25.5562 271.095 25.6077 271.094 25.6595V28.8507C271.09 28.9021 271.077 28.9523 271.054 28.9984C271.031 29.0445 270.999 29.0855 270.96 29.119Z" fill="white"/>
<path d="M287.889 29.119C287.853 29.1564 287.81 29.1861 287.762 29.2062C287.714 29.2264 287.663 29.2367 287.611 29.2363H280.779C280.757 29.2327 280.734 29.2343 280.713 29.241C280.691 29.2478 280.671 29.2595 280.655 29.2752C280.639 29.291 280.627 29.3103 280.619 29.3317C280.612 29.3531 280.609 29.3759 280.612 29.3984V34.5904C280.609 34.6128 280.612 34.6357 280.619 34.6571C280.627 34.6785 280.639 34.6978 280.655 34.7136C280.671 34.7293 280.691 34.741 280.713 34.7478C280.734 34.7545 280.757 34.7561 280.779 34.7525H284.673C284.725 34.7509 284.776 34.76 284.824 34.7791C284.872 34.7982 284.916 34.8269 284.952 34.8636C284.989 34.9002 285.017 34.944 285.036 34.9922C285.055 35.0403 285.064 35.0919 285.063 35.1437V38.3516C285.064 38.4035 285.054 38.455 285.035 38.5031C285.016 38.5512 284.987 38.595 284.951 38.6319C284.914 38.6688 284.871 38.6981 284.824 38.7181C284.776 38.7381 284.725 38.7484 284.673 38.7484H280.779C280.757 38.7448 280.734 38.7464 280.713 38.7531C280.691 38.7599 280.671 38.7716 280.655 38.7874C280.639 38.8031 280.627 38.8224 280.619 38.8438C280.612 38.8652 280.609 38.888 280.612 38.9105V44.1304C280.61 44.1531 280.612 44.1761 280.62 44.1976C280.627 44.2192 280.639 44.2388 280.655 44.255C280.671 44.2711 280.691 44.2834 280.712 44.2908C280.734 44.2983 280.757 44.3008 280.779 44.2981H287.611C287.662 44.2966 287.714 44.3056 287.762 44.3247C287.809 44.3438 287.853 44.3726 287.889 44.4092C287.926 44.4459 287.955 44.4896 287.974 44.5378C287.993 44.586 288.002 44.6375 288 44.6893V47.8526C288.001 47.9042 287.991 47.9555 287.972 48.0035C287.953 48.0514 287.925 48.0951 287.889 48.132C287.853 48.1694 287.81 48.1991 287.762 48.2193C287.714 48.2395 287.663 48.2497 287.611 48.2494H276.401C276.349 48.2507 276.297 48.2409 276.249 48.2207C276.201 48.2005 276.158 48.1702 276.123 48.132C276.085 48.0962 276.055 48.0528 276.035 48.0047C276.015 47.9566 276.005 47.9047 276.006 47.8526V25.6595C276.007 25.5547 276.05 25.4546 276.123 25.3805C276.197 25.3064 276.297 25.2641 276.401 25.2627H287.611C287.662 25.2627 287.713 25.273 287.761 25.293C287.809 25.313 287.852 25.3423 287.888 25.3793C287.924 25.4162 287.953 25.46 287.972 25.5081C287.991 25.5562 288.001 25.6077 288 25.6595V28.8507C287.999 28.9513 287.959 29.0475 287.889 29.119Z" fill="white"/>
</svg>
