<svg width="60" height="48" viewBox="0 0 60 48" fill="none" xmlns="http://www.w3.org/2000/svg">
<path d="M59.0462 5.69368C56.8749 6.65583 54.5423 7.30594 52.0901 7.59979C54.6203 6.0858 56.5133 3.70296 57.4157 0.895894C55.0386 2.3079 52.4368 3.30179 49.7237 3.83437C47.8992 1.8863 45.4826 0.595093 42.849 0.161207C40.2155 -0.27268 37.5124 0.175034 35.1593 1.43484C32.8063 2.69464 30.935 4.69605 29.836 7.12834C28.737 9.56063 28.4718 12.2877 29.0815 14.8862C24.2647 14.6443 19.5526 13.3924 15.251 11.2115C10.9493 9.0307 7.15433 5.96974 4.11225 2.22731C3.07208 4.0216 2.47398 6.10194 2.47398 8.31751C2.47282 10.312 2.96398 12.276 3.9039 14.0351C4.84381 15.7943 6.20341 17.2943 7.86206 18.402C5.93846 18.3407 4.05731 17.821 2.37516 16.8859V17.0419C2.37497 19.8393 3.34261 22.5506 5.11389 24.7158C6.88517 26.8809 9.35099 28.3666 12.0929 28.9207C10.3085 29.4036 8.43763 29.4747 6.62166 29.1287C7.39528 31.5357 8.90222 33.6405 10.9315 35.1485C12.9608 36.6565 15.4109 37.4921 17.9387 37.5385C13.6476 40.9071 8.34805 42.7344 2.89265 42.7263C1.92628 42.7266 0.960731 42.6701 0.000976562 42.5573C5.53852 46.1177 11.9846 48.0073 18.568 48C40.8536 48 53.0366 29.5422 53.0366 13.534C53.0366 13.0139 53.0236 12.4886 53.0002 11.9685C55.37 10.2548 57.4155 8.1326 59.041 5.70148L59.0462 5.69368V5.69368Z" fill="white"/>
</svg>
